# xmcd
#
# Track frame offsets:
#	150
#	10403
#	20130
#	32121
#	43278
#	55096
#	62498
#	74064
#	85539
#	96203
#	106225
#	115909
#	127495
#	134975
#
# Disc length: 1958 seconds
#
# Revision: 1
# Processed by: cddbd v1.5.2PL0 Copyright (c) Steve Scherf et al.
# Submitted via: audiograbber 1.83.01
#
DISCID=d407a40e
DTITLE=Elvis Presley - Greatest hits - CD 2
DYEAR=2008
DGENRE=Blues
TTITLE0=Loving you
TTITLE1=King Creole
TTITLE2=G.I. blues
TTITLE3=Flaming star
TTITLE4=Blue Hawaii
TTITLE5=Follow that dream
TTITLE6=Girll girls girls
TTITLE7=Fun in Acapulco
TTITLE8=Viva Las Vegas
TTITLE9=Kissin' cousins
TTITLE10=Girl happy
TTITLE11=Frankie and Johnny
TTITLE12=Double trouble
TTITLE13=Clambake
EXTD=
EXTT0=
EXTT1=
EXTT2=
EXTT3=
EXTT4=
EXTT5=
EXTT6=
EXTT7=
EXTT8=
EXTT9=
EXTT10=
EXTT11=
EXTT12=
EXTT13=
PLAYORDER=
